<mxfile host="www.draw.io" modified="2020-03-13T02:44:45.340Z" agent="Mozilla/5.0 (Macintosh; Intel Mac OS X 10_13_6) AppleWebKit/537.36 (KHTML, like Gecko) Chrome/80.0.3987.132 Safari/537.36" etag="lphk3lpNrGvsW4byCqKI" version="12.8.2" type="github">
  <diagram id="pH58iljbNW91_XA20jDl" name="第 1 页">
    <mxGraphModel dx="1106" dy="702" grid="1" gridSize="10" guides="1" tooltips="1" connect="1" arrows="1" fold="1" page="1" pageScale="1" pageWidth="827" pageHeight="1169" math="0" shadow="0">
      <root>
        <mxCell id="0" />
        <mxCell id="1" parent="0" />
        <mxCell id="U8XFKmEfSp6W77oONbZm-3" value="" style="edgeStyle=orthogonalEdgeStyle;rounded=0;orthogonalLoop=1;jettySize=auto;html=1;" parent="1" source="U8XFKmEfSp6W77oONbZm-1" target="U8XFKmEfSp6W77oONbZm-2" edge="1">
          <mxGeometry relative="1" as="geometry" />
        </mxCell>
        <mxCell id="U8XFKmEfSp6W77oONbZm-1" value="B" style="rounded=0;whiteSpace=wrap;html=1;" parent="1" vertex="1">
          <mxGeometry x="70" y="160" width="120" height="60" as="geometry" />
        </mxCell>
        <mxCell id="U8XFKmEfSp6W77oONbZm-2" value="D" style="rounded=0;whiteSpace=wrap;html=1;" parent="1" vertex="1">
          <mxGeometry x="70" y="20" width="120" height="60" as="geometry" />
        </mxCell>
        <mxCell id="U8XFKmEfSp6W77oONbZm-4" value="" style="edgeStyle=orthogonalEdgeStyle;rounded=0;orthogonalLoop=1;jettySize=auto;html=1;" parent="1" source="U8XFKmEfSp6W77oONbZm-5" target="U8XFKmEfSp6W77oONbZm-6" edge="1">
          <mxGeometry relative="1" as="geometry" />
        </mxCell>
        <mxCell id="U8XFKmEfSp6W77oONbZm-5" value="C" style="rounded=0;whiteSpace=wrap;html=1;" parent="1" vertex="1">
          <mxGeometry x="340" y="160" width="120" height="60" as="geometry" />
        </mxCell>
        <mxCell id="U8XFKmEfSp6W77oONbZm-6" value="E" style="rounded=0;whiteSpace=wrap;html=1;" parent="1" vertex="1">
          <mxGeometry x="340" y="20" width="120" height="60" as="geometry" />
        </mxCell>
        <mxCell id="U8XFKmEfSp6W77oONbZm-9" style="rounded=0;orthogonalLoop=1;jettySize=auto;html=1;exitX=0.5;exitY=0;exitDx=0;exitDy=0;entryX=0.5;entryY=1;entryDx=0;entryDy=0;" parent="1" source="U8XFKmEfSp6W77oONbZm-7" target="U8XFKmEfSp6W77oONbZm-1" edge="1">
          <mxGeometry relative="1" as="geometry" />
        </mxCell>
        <mxCell id="U8XFKmEfSp6W77oONbZm-10" style="edgeStyle=none;rounded=0;orthogonalLoop=1;jettySize=auto;html=1;exitX=0.5;exitY=0;exitDx=0;exitDy=0;entryX=0.5;entryY=1;entryDx=0;entryDy=0;" parent="1" source="U8XFKmEfSp6W77oONbZm-7" target="U8XFKmEfSp6W77oONbZm-5" edge="1">
          <mxGeometry relative="1" as="geometry" />
        </mxCell>
        <mxCell id="U8XFKmEfSp6W77oONbZm-7" value="A" style="rounded=0;whiteSpace=wrap;html=1;" parent="1" vertex="1">
          <mxGeometry x="200" y="320" width="120" height="60" as="geometry" />
        </mxCell>
        <mxCell id="Acvv3V8nzP4DHE-0jUTI-5" style="rounded=0;orthogonalLoop=1;jettySize=auto;html=1;entryX=0.594;entryY=0.976;entryDx=0;entryDy=0;entryPerimeter=0;exitX=0.5;exitY=0;exitDx=0;exitDy=0;" edge="1" parent="1" source="Acvv3V8nzP4DHE-0jUTI-1" target="Acvv3V8nzP4DHE-0jUTI-2">
          <mxGeometry relative="1" as="geometry" />
        </mxCell>
        <mxCell id="Acvv3V8nzP4DHE-0jUTI-6" style="edgeStyle=none;rounded=0;orthogonalLoop=1;jettySize=auto;html=1;exitX=0.5;exitY=0;exitDx=0;exitDy=0;entryX=0.5;entryY=1;entryDx=0;entryDy=0;" edge="1" parent="1" source="Acvv3V8nzP4DHE-0jUTI-1" target="Acvv3V8nzP4DHE-0jUTI-3">
          <mxGeometry relative="1" as="geometry" />
        </mxCell>
        <mxCell id="Acvv3V8nzP4DHE-0jUTI-1" value="A" style="rounded=0;whiteSpace=wrap;html=1;" vertex="1" parent="1">
          <mxGeometry x="250" y="780" width="120" height="60" as="geometry" />
        </mxCell>
        <mxCell id="Acvv3V8nzP4DHE-0jUTI-7" style="edgeStyle=none;rounded=0;orthogonalLoop=1;jettySize=auto;html=1;entryX=0.5;entryY=1;entryDx=0;entryDy=0;" edge="1" parent="1" source="Acvv3V8nzP4DHE-0jUTI-2" target="Acvv3V8nzP4DHE-0jUTI-4">
          <mxGeometry relative="1" as="geometry" />
        </mxCell>
        <mxCell id="Acvv3V8nzP4DHE-0jUTI-2" value="B" style="rounded=0;whiteSpace=wrap;html=1;" vertex="1" parent="1">
          <mxGeometry x="130" y="630" width="120" height="60" as="geometry" />
        </mxCell>
        <mxCell id="Acvv3V8nzP4DHE-0jUTI-8" style="edgeStyle=none;rounded=0;orthogonalLoop=1;jettySize=auto;html=1;exitX=0.5;exitY=0;exitDx=0;exitDy=0;entryX=0.561;entryY=1.043;entryDx=0;entryDy=0;entryPerimeter=0;" edge="1" parent="1" source="Acvv3V8nzP4DHE-0jUTI-3" target="Acvv3V8nzP4DHE-0jUTI-4">
          <mxGeometry relative="1" as="geometry" />
        </mxCell>
        <mxCell id="Acvv3V8nzP4DHE-0jUTI-3" value="C" style="rounded=0;whiteSpace=wrap;html=1;" vertex="1" parent="1">
          <mxGeometry x="370" y="630" width="120" height="60" as="geometry" />
        </mxCell>
        <mxCell id="Acvv3V8nzP4DHE-0jUTI-4" value="D" style="rounded=0;whiteSpace=wrap;html=1;" vertex="1" parent="1">
          <mxGeometry x="250" y="490" width="120" height="60" as="geometry" />
        </mxCell>
      </root>
    </mxGraphModel>
  </diagram>
</mxfile>
